<svg xmlns="http://www.w3.org/2000/svg" viewBox="0 0 252.9 81.7"><defs><style>.cls-1{fill:#191919;}.cls-2{fill:#fff;}.cls-3{fill:#231f20;}</style></defs><title>brck-logo-bw</title><g id="Layer_2" data-name="Layer 2"><g id="Layer_1-2" data-name="Layer 1"><rect class="cls-1" width="81.4" height="81.35" rx="4.6"/><rect class="cls-2" x="23.2" y="23.2" width="35" height="35.03"/><path class="cls-3" d="M118.4,37.7c2.9-3.6,4.3-9,4.3-16s-1.4-12.5-4.3-16.1S110.6.1,104.4.1H93a2.4,2.4,0,0,0-1.7.7,2.1,2.1,0,0,0-.7,1.6V79.3A2.1,2.1,0,0,0,93,81.7h11.4c6.2,0,11-1.8,14-5.4s4.3-9,4.3-16.1-1.4-12.5-4.3-16.1a13.2,13.2,0,0,0-3.8-3.2l1.7-1.1A20.8,20.8,0,0,0,118.4,37.7ZM104.4,77h-9V43.2h9c4.7,0,8.2,1.3,10.2,3.9s3.2,7,3.2,13.1-1,10.4-3.1,13S109.2,77,104.4,77Zm0-38.5h-9V4.9h9c4.8,0,8.3,1.2,10.3,3.8s3.1,6.9,3.1,13-1,10.3-3.2,12.9S109.1,38.5,104.4,38.5Z"/><path class="cls-3" d="M158,42.4a5.7,5.7,0,0,0-1.3-.8,14.9,14.9,0,0,0,4.1-3.3c3.1-3.6,4.6-9.2,4.6-16.5s-1.6-13-4.7-16.5S152.7,0,146.2,0H133.5a2.1,2.1,0,0,0-1.6.7,2.4,2.4,0,0,0-.7,1.6V79.2a2.4,2.4,0,0,0,.7,1.7,2.1,2.1,0,0,0,1.6.7,2.2,2.2,0,0,0,2.5-2.4V43.8h10.2c4.6,0,8.3,1.3,10.8,3.9s3.8,6.3,3.8,11V79.2a2.1,2.1,0,0,0,.7,1.7,2,2,0,0,0,1.6.7,2.2,2.2,0,0,0,2.4-2.4V58.7c0-6.2-1.8-11.1-5.4-14.6Zm2.5-20.6c0,6.3-1.1,10.8-3.3,13.3s-6,4-11,4H136V4.7h10.2c5.1,0,8.8,1.4,11,4S160.5,15.7,160.5,21.8Z"/><path class="cls-3" d="M181.2,8.9c2.1-2.7,5.3-4,9.5-4s7.5,1.3,9.5,3.9,3.4,7.3,3.4,13.1a2.4,2.4,0,1,0,4.8,0A30.6,30.6,0,0,0,206.8,11a15.4,15.4,0,0,0-4.2-6.7A13.8,13.8,0,0,0,196.9,1a22.4,22.4,0,0,0-12.3,0,12.8,12.8,0,0,0-5.7,3.3,15.4,15.4,0,0,0-4.2,6.7,30.6,30.6,0,0,0-1.6,10.9V59.8a30.8,30.8,0,0,0,1.6,11,16,16,0,0,0,4.2,6.7,13,13,0,0,0,5.7,3.4,21.8,21.8,0,0,0,6.1.8,22.5,22.5,0,0,0,6.2-.8,13,13,0,0,0,5.7-3.4,16,16,0,0,0,4.2-6.7,30.8,30.8,0,0,0,1.6-11,2.4,2.4,0,1,0-4.8,0c0,5.9-1.2,10.3-3.4,13.2s-5.2,4-9.5,4-7.3-1.3-9.5-4-3.4-7.3-3.4-13.2V21.9C177.8,16.1,178.9,11.7,181.2,8.9Z"/><path class="cls-3" d="M229.9,37.7,252.4,3.8a1.7,1.7,0,0,0,.4-1.8,2.6,2.6,0,0,0-1-1.6,2.5,2.5,0,0,0-1.7-.3,2.3,2.3,0,0,0-1.6,1.1L219.3,44.7V2.4a2.1,2.1,0,0,0-.7-1.6A2.4,2.4,0,0,0,217,.1a2.4,2.4,0,0,0-1.7.7,2.1,2.1,0,0,0-.7,1.6V79.3a2.1,2.1,0,0,0,2.4,2.4,2,2,0,0,0,1.6-.7,2.1,2.1,0,0,0,.7-1.7V53.5l7.6-11.3,21.5,38.3a2.4,2.4,0,0,0,2.1,1.2l1.1-.2h.1a2.6,2.6,0,0,0,1.1-1.4,2.2,2.2,0,0,0-.2-1.8Z"/></g></g></svg>