<?xml version="1.0" encoding="utf-8"?>
<!-- Generator: Adobe Illustrator 16.0.0, SVG Export Plug-In . SVG Version: 6.00 Build 0)  -->
<!DOCTYPE svg PUBLIC "-//W3C//DTD SVG 1.1//EN" "http://www.w3.org/Graphics/SVG/1.1/DTD/svg11.dtd">
<svg version="1.1" id="Layer_1" xmlns="http://www.w3.org/2000/svg" xmlns:xlink="http://www.w3.org/1999/xlink" x="0px" y="0px"
	 width="38.8px" height="12.2px" viewBox="0 0 38.8 12.2" style="enable-background:new 0 0 38.8 12.2;" xml:space="preserve">
<style type="text/css">
<![CDATA[
	.st0{fill:#FCD434;}
	.st1{fill:#FFFFFF;}
]]>
</style>
<g>
	<g>
		<path class="st1" d="M22.8,3.4C22.6,3.2,22.3,3,22,2.9c-0.3-0.1-0.6-0.2-0.9-0.2c-0.7,0-1.3,0.3-1.7,0.7c-0.2-0.2-0.5-0.4-0.7-0.5
			c-0.3-0.1-0.6-0.2-1-0.2c-0.4,0-0.8,0.1-1.2,0.3c0-0.1-0.1-0.1-0.2-0.2c-0.1-0.1-0.2-0.1-0.4-0.1c-0.2,0-0.3,0.1-0.5,0.2
			c-0.1,0.1-0.2,0.3-0.2,0.5V8c0,0.2,0.1,0.3,0.2,0.5c0.1,0.1,0.3,0.2,0.5,0.2c0.2,0,0.3-0.1,0.5-0.2c0.1-0.1,0.2-0.3,0.2-0.5V5.1
			c0-0.1,0-0.3,0.1-0.4c0.1-0.1,0.1-0.2,0.2-0.3c0.1-0.1,0.2-0.2,0.3-0.2C17.5,4,17.8,4,18,4.1c0.1,0.1,0.2,0.1,0.3,0.2
			c0.1,0.1,0.2,0.2,0.2,0.3c0.1,0.1,0.1,0.3,0.1,0.4V8c0,0.2,0.1,0.3,0.2,0.5c0.1,0.1,0.3,0.2,0.5,0.2c0.2,0,0.3-0.1,0.5-0.2
			C19.9,8.3,20,8.2,20,8V5.1c0-0.1,0-0.3,0.1-0.4c0.1-0.1,0.1-0.2,0.2-0.3c0.1-0.1,0.2-0.2,0.3-0.2C20.8,4,20.9,4,21.1,4
			c0.2,0,0.3,0,0.4,0.1c0.1,0.1,0.2,0.1,0.3,0.2C22,4.4,22,4.5,22.1,4.7s0.1,0.3,0.1,0.4V8c0,0.2,0.1,0.3,0.2,0.5
			c0.1,0.1,0.3,0.2,0.5,0.2c0.2,0,0.3-0.1,0.5-0.2c0.1-0.1,0.2-0.3,0.2-0.5V5.1c0-0.3-0.1-0.6-0.2-0.9C23.2,3.9,23,3.6,22.8,3.4z"/>
		<path class="st1" d="M30,5.7c0-0.4-0.1-0.8-0.2-1.1s-0.4-0.7-0.6-1c-0.6-0.6-1.3-0.9-2.1-0.9c-0.8,0-1.5,0.3-2.1,0.9
			c-0.6,0.6-0.9,1.3-0.9,2.1c0,0.8,0.3,1.5,0.9,2.1c0.6,0.6,1.3,0.9,2.1,0.9c0.8,0,1.5-0.3,2.1-0.9C29.7,7.2,30,6.5,30,5.7z M25.5,5
			c0.1-0.2,0.2-0.4,0.4-0.5c0.1-0.1,0.3-0.3,0.5-0.4C26.6,4.1,26.8,4,27.1,4c0.2,0,0.4,0,0.6,0.1c0.2,0.1,0.4,0.2,0.5,0.4
			c0.1,0.2,0.3,0.3,0.4,0.5c0.1,0.2,0.1,0.4,0.1,0.6c0,0.2,0,0.4-0.1,0.6c-0.1,0.2-0.2,0.4-0.4,0.5c-0.2,0.2-0.3,0.3-0.5,0.4
			c-0.2,0.1-0.4,0.1-0.6,0.1c-0.2,0-0.5,0-0.7-0.1C26.2,7.1,26,7,25.9,6.8c-0.1-0.1-0.3-0.3-0.4-0.5c-0.1-0.2-0.1-0.4-0.1-0.6
			C25.4,5.4,25.5,5.2,25.5,5z"/>
		<path class="st1" d="M31.5,2.7c-0.2,0-0.3,0.1-0.5,0.2c-0.1,0.1-0.2,0.3-0.2,0.5V8c0,0.2,0,0.3-0.1,0.5c-0.1,0.2-0.2,0.3-0.3,0.4
			c-0.1,0.1-0.3,0.2-0.4,0.3c-0.2,0.1-0.3,0.1-0.5,0.1c-0.2,0-0.3,0.1-0.5,0.2C29,9.6,28.9,9.8,28.9,10s0.1,0.3,0.2,0.5
			c0.1,0.1,0.3,0.2,0.5,0.2c0.3,0,0.7-0.1,1-0.2c0.3-0.1,0.6-0.3,0.8-0.6c0.2-0.2,0.4-0.5,0.6-0.8c0.1-0.3,0.2-0.6,0.2-1V3.4
			c0-0.2-0.1-0.3-0.2-0.5C31.8,2.8,31.7,2.7,31.5,2.7z"/>
		<path class="st1" d="M37.9,3.6c-0.6-0.6-1.3-0.9-2.1-0.9c-0.8,0-1.5,0.3-2.1,0.9c-0.6,0.6-0.9,1.3-0.9,2.1c0,0.8,0.3,1.5,0.9,2.1
			c0.6,0.6,1.3,0.9,2.1,0.9c0.3,0,0.7-0.1,1-0.2c0.2-0.1,0.5-0.2,0.7-0.4c0,0.1,0.1,0.2,0.2,0.3c0.1,0.1,0.3,0.2,0.5,0.2
			c0.2,0,0.3-0.1,0.5-0.2c0.1-0.1,0.2-0.3,0.2-0.5V5.7C38.8,4.9,38.5,4.2,37.9,3.6z M35.8,7.3c-0.2,0-0.5,0-0.7-0.1
			C35,7.1,34.8,7,34.6,6.8c-0.1-0.1-0.3-0.3-0.4-0.5c-0.1-0.2-0.1-0.4-0.1-0.6c0-0.2,0-0.4,0.1-0.6c0.1-0.2,0.2-0.4,0.4-0.5
			c0.1-0.1,0.3-0.3,0.5-0.4C35.4,4.1,35.6,4,35.8,4c0.2,0,0.4,0,0.6,0.1c0.2,0.1,0.4,0.2,0.5,0.4c0.1,0.2,0.3,0.3,0.4,0.5
			c0.1,0.2,0.1,0.4,0.1,0.6c0,0.2,0,0.4-0.1,0.6c-0.1,0.2-0.2,0.4-0.4,0.5s-0.3,0.3-0.5,0.4S36,7.3,35.8,7.3z"/>
	</g>
	<g>
		<g>
			<path class="st1" d="M8.7,8.7c-1.4,1.4-3.7,1.4-5.2,0c-0.8-0.8-1.2-1.8-1-2.9c0-0.4,0.4-0.7,0.8-0.6c0.4,0,0.7,0.4,0.6,0.8
				C3.8,6.6,4,7.2,4.5,7.7c0.9,0.9,2.3,0.9,3.2,0c0.4-0.4,0.6-0.9,0.7-1.4c0-0.4,0.4-0.7,0.7-0.6c0.4,0,0.7,0.4,0.6,0.7
				C9.7,7.3,9.3,8.1,8.7,8.7z"/>
		</g>
		<g>
			<path class="st0" d="M9,4.9C9,4.9,8.9,4.9,9,4.9c-0.4,0.3-0.8,0.2-1-0.1C7.9,4.7,7.8,4.6,7.7,4.5c-0.9-0.9-2.3-0.9-3.2,0
				c-0.3,0.3-0.7,0.3-1,0c-0.3-0.3-0.3-0.7,0-1c1.4-1.4,3.7-1.3,5.1,0C8.8,3.7,8.9,3.8,9.1,4C9.3,4.2,9.2,4.6,9,4.9z"/>
		</g>
		<g>
			<path class="st1" d="M10.4,10.5c-2.4,2.4-6.3,2.4-8.7,0c-1.9-1.9-2.3-4.9-1.1-7.2c0.2-0.3,0.6-0.5,0.9-0.3C2,3.1,2.1,3.5,1.9,3.9
				C1,5.7,1.3,8,2.8,9.5c1.8,1.8,4.9,1.8,6.7,0c1.3-1.3,1.7-3.1,1.1-4.9c-0.1-0.4,0.1-0.8,0.4-0.9c0.4-0.1,0.8,0.1,0.9,0.4
				C12.7,6.4,12.1,8.8,10.4,10.5z"/>
		</g>
		<g>
			<path class="st0" d="M10.7,3.1C10.7,3.1,10.7,3.1,10.7,3.1c-0.3,0.3-0.8,0.3-1,0C9.6,2.9,9.6,2.9,9.5,2.8c-0.8-0.8-2-1.3-3.1-1.4
				C5.1,1.3,4,1.7,3.1,2.5c-0.3,0.2-0.7,0.2-1-0.1c-0.2-0.3-0.2-0.7,0.1-1c1.2-1,2.7-1.5,4.2-1.4c1.5,0.1,3,0.7,4.1,1.8
				c0.1,0.1,0.2,0.2,0.3,0.3C11,2.4,11,2.8,10.7,3.1z"/>
		</g>
		<g>
			<circle class="st0" cx="6.1" cy="6.1" r="1.1"/>
		</g>
	</g>
</g>
</svg>
